<?xml version="1.0" standalone="no"?>
<!DOCTYPE svg PUBLIC "-//W3C//DTD SVG 20010904//EN"
 "http://www.w3.org/TR/2001/REC-SVG-20010904/DTD/svg10.dtd">
<svg version="1.0" xmlns="http://www.w3.org/2000/svg"
 width="150.000000pt" height="132.000000pt" viewBox="0 0 150.000000 132.000000"
 preserveAspectRatio="xMidYMid meet">

<g transform="translate(0.000000,132.000000) scale(0.100000,-0.100000)"
fill="#000000" stroke="none">
<path d="M1133 1013 c-101 -4 -103 -4 -103 -28 0 -51 -7 -55 -91 -55 l-79 0 0
40 0 40 -100 0 -100 0 0 -115 0 -115 100 0 100 0 0 -25 0 -25 100 0 100 0 0
40 0 40 90 0 90 0 0 105 c0 58 -1 104 -2 103 -2 -1 -49 -4 -105 -5z"/>
<path d="M410 910 l0 -100 -85 0 -86 0 3 -102 3 -103 81 3 81 4 6 -62 c4 -34
4 -66 1 -71 -3 -5 -39 -9 -80 -9 -41 0 -74 -4 -74 -9 0 -6 26 -34 57 -63 31
-29 74 -70 96 -91 22 -20 41 -37 43 -37 2 0 4 37 6 83 l3 82 78 3 77 3 0 99 0
100 -84 0 -83 0 -7 46 c-10 77 -7 111 10 118 9 3 47 6 85 6 l69 0 0 100 0 100
-100 0 -100 0 0 -100z"/>
<path d="M861 628 c1 -46 3 -75 6 -65 4 15 17 17 93 17 61 0 90 -4 93 -12 3
-7 6 22 6 65 l1 77 -100 0 -100 0 1 -82z"/>
</g>
</svg>
